<svg width="300" height="80" viewBox="0 0 300 80" fill="none" xmlns="http://www.w3.org/2000/svg">
  <g transform="translate(10, 15)">
    <path d="M25 5C25 5 28 20 40 25C28 30 25 45 25 45C25 45 22 30 10 25C22 20 25 5 25 5Z" stroke="#2563EB" stroke-width="4" stroke-linecap="round" stroke-linejoin="round" fill="none"/>
    <path d="M48 10C48 10 49 14 53 15C49 16 48 20 48 20C48 20 47 16 43 15C47 14 48 10 48 10Z" fill="#2563EB"/>
    <circle cx="12" cy="40" r="3" fill="#2563EB"/>
  </g>
  <text x="75" y="53" font-family="system-ui, sans-serif" font-weight="800" font-size="42" fill="#0f172a" letter-spacing="-1">Clearly</text>
</svg>